<svg width="64" height="64" viewBox="0 0 64 64" fill="none" xmlns="http://www.w3.org/2000/svg">
<g filter="url(#filter0_b_1_2)">
<g filter="url(#filter1_b_1_2)">
<path d="M25.9393 35.2592C23.5152 37.6296 21.0909 40 16.2424 40C11.3939 40 5.33333 36.4444 5.33333 29.3333C5.33333 22.2223 11.3939 18.6667 16.2424 18.6667C23.5152 18.6667 27.1515 23.4075 32 29.3333C36.8485 35.2592 40.4848 40 47.7576 40C52.606 40 58.6667 36.4444 58.6667 29.3333C58.6667 22.2223 52.606 18.6667 47.7576 18.6667C42.9091 18.6667 39.2727 22.2223 38.0607 23.4075" stroke="url(#paint0_linear_1_2)" stroke-width="4" stroke-linecap="round" stroke-linejoin="round"/>
</g>
</g>
<defs>
<filter id="filter0_b_1_2" x="-4" y="-4" width="72" height="72" filterUnits="userSpaceOnUse" color-interpolation-filters="sRGB">
<feFlood flood-opacity="0" result="BackgroundImageFix"/>
<feGaussianBlur in="BackgroundImageFix" stdDeviation="2"/>
<feComposite in2="SourceAlpha" operator="in" result="effect1_backgroundBlur_1_2"/>
<feBlend mode="normal" in="SourceGraphic" in2="effect1_backgroundBlur_1_2" result="shape"/>
</filter>
<filter id="filter1_b_1_2" x="-0.666672" y="12.6667" width="65.3333" height="33.3333" filterUnits="userSpaceOnUse" color-interpolation-filters="sRGB">
<feFlood flood-opacity="0" result="BackgroundImageFix"/>
<feGaussianBlur in="BackgroundImageFix" stdDeviation="2"/>
<feComposite in2="SourceAlpha" operator="in" result="effect1_backgroundBlur_1_2"/>
<feBlend mode="normal" in="SourceGraphic" in2="effect1_backgroundBlur_1_2" result="shape"/>
</filter>
<linearGradient id="paint0_linear_1_2" x1="32" y1="18.6667" x2="32" y2="40" gradientUnits="userSpaceOnUse">
<stop stop-color="#ACE0F9"/>
<stop offset="0.5" stop-color="#3C3C43" stop-opacity="0.29"/>
<stop offset="1" stop-color="#FFF1EB"/>
</linearGradient>
</defs>
</svg>
